<?xml version="1.0" encoding="UTF-8"?>
<svg version="1.1" xmlns="http://www.w3.org/2000/svg" width="948" height="1275">
<path d="M0 0 C2.68691876 -0.00249915 5.37383242 -0.00646106 8.06074905 -0.01062775 C12.32109887 -0.01652264 16.58141146 -0.01652933 20.84176254 -0.01195526 C22.43289285 -0.01087629 24.02402515 -0.01140671 25.61515427 -0.01363373 C27.81921249 -0.01619617 30.02317149 -0.0123836 32.22722244 -0.0069046 C33.46986359 -0.00610901 34.71250473 -0.00531342 35.99280167 -0.00449371 C39.21771551 0.1161866 42.21268073 0.56749558 45.38615799 1.12248993 C46.9294188 1.19231915 48.47519516 1.22124662 50.01994705 1.20476532 C51.31155746 1.19647957 51.31155746 1.19647957 52.62926102 1.18802643 C54.00165939 1.1729882 54.00165939 1.1729882 55.40178299 1.15764618 C66.65369177 1.09672775 77.88801176 1.28734742 89.13615799 1.55998993 C91.06600818 1.60483352 92.99585844 1.64967397 94.92570877 1.69451141 C106.40297452 1.96746873 117.87232206 2.32407258 129.34245682 2.81755829 C135.88672579 3.09293731 142.39427784 3.19116337 148.94475174 3.05998993 C151.38615799 3.12248993 151.38615799 3.12248993 154.38615799 4.12248993 C155.04615799 3.79248993 155.70615799 3.46248993 156.38615799 3.12248993 C158.52163495 3.35211581 160.6567059 3.5870136 162.78814888 3.85147667 C167.25120225 4.31704341 171.71322013 4.30121451 176.19694901 4.32781219 C177.24953746 4.33770613 178.30212591 4.34760006 179.38661098 4.35779381 C182.88773954 4.38941401 186.38888001 4.41426969 189.89006424 4.43889618 C192.39781822 4.45967707 194.90556966 4.48076713 197.41331863 4.50214386 C204.18402028 4.55825371 210.95475096 4.60769825 217.72551727 4.65512085 C221.94731821 4.68475427 226.16910319 4.71635392 230.39088821 4.74816132 C270.44768414 5.04818072 310.50403769 5.22761872 350.56201172 5.24542618 C354.18203581 5.2474805 357.80205488 5.25123414 361.42207718 5.25533295 C367.11208584 5.26119342 372.80206717 5.26134039 378.49207687 5.25687218 C380.55554818 5.25584831 382.61902099 5.25636173 384.6824913 5.25863075 C405.91165645 5.42857112 405.91165645 5.42857112 426.94865799 2.99748993 C432.04802643 2.134718 436.81043427 2.06678857 441.94865799 2.37248993 C442.62807449 2.41100067 443.307491 2.44951141 444.00749588 2.48918915 C449.47634661 2.90791627 452.70952662 4.07819543 456.38615799 8.12248993 C455.57365799 11.05998993 455.57365799 11.05998993 454.38615799 14.12248993 C452.90115799 14.61748993 452.90115799 14.61748993 451.38615799 15.12248993 C451.38615799 15.78248993 451.38615799 16.44248993 451.38615799 17.12248993 C450.72615799 17.12248993 450.06615799 17.12248993 449.38615799 17.12248993 C449.07871658 17.90946259 449.07871658 17.90946259 448.76506424 18.71233368 C446.40489226 22.83762011 442.92172753 26.02381428 439.64201736 29.4330368 C439.11285721 29.9918454 438.58369705 30.55065399 438.03850174 31.12639618 C437.55373367 31.62985565 437.06896561 32.13331512 436.5695076 32.65203094 C435.15520603 34.23465495 435.15520603 34.23465495 434.38615799 37.12248993 C433.39615799 37.12248993 432.40615799 37.12248993 431.38615799 37.12248993 C431.32428299 37.65873993 431.26240799 38.19498993 431.19865799 38.74748993 C429.46794604 43.80649409 425.43265265 47.14696568 421.44865799 50.49748993 C418.03114127 53.40109436 415.43970392 56.4402871 412.90568924 60.13030243 C410.94915698 62.69542184 408.69127808 64.87754013 406.38615799 67.12248993 C403.25626964 70.22174015 400.13421266 73.32885584 397.01115799 76.43498993 C396.18615799 77.25161102 395.36115799 78.06823212 394.51115799 78.9095993 C389.03848466 84.36055568 383.76449969 89.9169144 378.92448807 95.94207001 C377.7806883 97.36494617 376.58833106 98.74857785 375.38615799 100.12248993 C374.72615799 100.12248993 374.06615799 100.12248993 373.38615799 100.12248993 C373.1451033 100.68065399 372.90404861 101.23881805 372.65568924 101.81389618 C370.0756158 106.50566049 366.0213666 110.2294205 362.38615799 114.12248993 C361.5779158 114.99454071 361.5779158 114.99454071 360.75334549 115.88420868 C359.67666679 117.00924122 358.53840773 118.07499016 357.38615799 119.12248993 C356.72615799 119.12248993 356.06615799 119.12248993 355.38615799 119.12248993 C355.38615799 120.11248993 355.38615799 121.10248993 355.38615799 122.12248993 C354.06615799 122.45248993 352.74615799 122.78248993 351.38615799 123.12248993 C351.28126053 123.71255829 351.17636307 124.30262665 351.0682869 124.91057587 C350.28336819 127.4558026 349.31141876 128.60587309 347.47209549 130.51311493 C346.87912674 131.13637665 346.28615799 131.75963837 345.67522049 132.4017868 C345.04357986 133.05211884 344.41193924 133.70245087 343.76115799 134.37248993 C342.47646056 135.7206452 341.19259668 137.0695953 339.90959549 138.41936493 C339.29567947 139.06196259 338.68176346 139.70456024 338.04924393 140.36663055 C335.05536643 143.52751824 332.20870339 146.80906706 329.38615799 150.12248993 C328.38615799 151.2891566 327.38615799 152.45582326 326.38615799 153.62248993 C325.90275955 154.18838837 325.41936111 154.7542868 324.92131424 155.33733368 C323.23508437 157.29816587 321.53056553 159.24213836 319.82365799 161.18498993 C317.76342178 163.53048962 315.73762619 165.89361814 313.76115799 168.30998993 C311.42248706 171.07946866 309.05565213 173.66944126 306.38615799 176.12248993 C305.72615799 176.12248993 305.06615799 176.12248993 304.38615799 176.12248993 C304.13865799 176.74123993 303.89115799 177.35998993 303.63615799 177.99748993 C302.1487543 180.5260762 300.9493779 180.84087997 298.38615799 182.12248993 C297.33594696 183.97220689 297.33594696 183.97220689 296.38615799 186.12248993 C294.38615799 188.87248993 294.38615799 188.87248993 292.38615799 191.12248993 C291.72615799 191.12248993 291.06615799 191.12248993 290.38615799 191.12248993 C290.13865799 191.67936493 289.89115799 192.23623993 289.63615799 192.80998993 C287.02225009 197.64571954 283.24005915 201.26858877 279.38615799 205.12248993 C275.12378118 209.79963219 270.96393919 214.56417767 266.90568924 219.41936493 C264.82685339 221.74937118 262.59412 223.91452792 260.38615799 226.12248993 C258.30280494 228.31169542 256.24897653 230.5273675 254.19865799 232.74748993 C253.66563065 233.31983368 253.1326033 233.89217743 252.58342361 234.48186493 C250.30557096 236.94595711 248.25136468 239.32467989 246.38615799 242.12248993 C245.72615799 242.12248993 245.06615799 242.12248993 244.38615799 242.12248993 C244.11803299 242.70514618 243.84990799 243.28780243 243.57365799 243.88811493 C242.37134808 246.15035593 241.04789886 247.92825311 239.38615799 249.87248993 C238.87053299 250.48608368 238.35490799 251.09967743 237.82365799 251.73186493 C236.38615799 253.12248993 236.38615799 253.12248993 234.38615799 253.12248993 C234.0748494 253.92686493 234.0748494 253.92686493 233.75725174 254.74748993 C231.84633663 258.0575651 229.18148019 260.49690095 226.44865799 263.12248993 C222.30144414 267.09584704 222.30144414 267.09584704 218.63225174 271.49748993 C218.2210408 272.03373993 217.80982986 272.56998993 217.38615799 273.12248993 C216.72615799 273.12248993 216.06615799 273.12248993 215.38615799 273.12248993 C215.05615799 274.44248993 214.72615799 275.76248993 214.38615799 277.12248993 C213.72615799 277.12248993 213.06615799 277.12248993 212.38615799 277.12248993 C212.05615799 278.11248993 211.72615799 279.10248993 211.38615799 280.12248993 C210.39615799 280.12248993 209.40615799 280.12248993 208.38615799 280.12248993 C208.36553299 280.82373993 208.34490799 281.52498993 208.32365799 282.24748993 C207.1780759 285.76060834 205.2915822 287.02609503 202.46428299 289.27873993 C199.16528279 292.20567243 196.59011014 295.67811309 193.84709549 299.11858368 C191.25167366 302.2866462 188.54390936 305.30747256 185.76115799 308.30998993 C185.29113358 308.81723602 184.82110916 309.32448212 184.33684158 309.8470993 C183.6496907 310.58863251 183.6496907 310.58863251 182.94865799 311.34514618 C180.2842966 314.23289153 177.69235096 317.17218376 175.12053299 320.14202118 C173.11351261 322.43382148 171.06212948 324.68245745 169.01115799 326.93498993 C165.84746724 330.43113631 162.83523466 334.00635074 159.88615799 337.68498993 C156.33087803 342.08263587 152.54411604 346.06713301 148.50334549 350.01702118 C137.70772868 360.68701975 137.70772868 360.68701975 129.38615799 373.12248993 C128.72615799 373.12248993 128.06615799 373.12248993 127.38615799 373.12248993 C127.12190018 373.71545868 126.85764236 374.30842743 126.58537674 374.91936493 C125.34245374 377.20278047 124.08214153 378.59675716 122.19865799 380.37248993 C119.09456084 383.38735225 116.23989098 386.52523467 113.42131424 389.80608368 C111.82884993 391.61861983 110.21518025 393.3940226 108.56975174 395.15764618 C108.07571854 395.68849823 107.58168533 396.21935028 107.07268143 396.76628876 C106.09136016 397.8177729 105.10645977 398.86593084 104.1176033 399.91033173 C101.7141165 402.49164926 99.73642229 404.84439163 98.38615799 408.12248993 C97.72615799 408.12248993 97.06615799 408.12248993 96.38615799 408.12248993 C96.05615799 409.11248993 95.72615799 410.10248993 95.38615799 411.12248993 C94.72615799 411.12248993 94.06615799 411.12248993 93.38615799 411.12248993 C93.32428299 411.67936493 93.26240799 412.23623993 93.19865799 412.80998993 C92.05514365 416.06460767 89.82417513 417.69138915 87.38615799 420.12248993 C85.72242759 422.18744149 84.10161921 424.25365717 82.51115799 426.37248993 C81.63783587 427.52511851 80.76413609 428.67746104 79.89006424 429.82952118 C79.46612381 430.38977997 79.04218338 430.95003876 78.60539627 431.52727509 C76.9203352 433.73195851 75.18161929 435.89286847 73.44865799 438.05998993 C70.92995064 441.27965829 69.01819305 444.37840949 67.38615799 448.12248993 C68.37357986 447.95748993 69.36100174 447.79248993 70.37834549 447.62248993 C74.44333432 447.04148498 78.41330094 447.04502571 82.51115799 447.12248993 C86.94213412 447.20531191 91.03839478 447.05917141 95.38615799 446.12248993 C97.05715776 446.43337361 98.72487336 446.76329325 100.38615799 447.12248993 C101.04615799 446.79248993 101.70615799 446.46248993 102.38615799 446.12248993 C103.04615799 446.45248993 103.70615799 446.78248993 104.38615799 447.12248993 C106.59730851 447.02859176 108.80575414 446.8699151 111.01115799 446.68498993 C119.12843308 446.07215126 127.20664317 446.05485388 135.34367752 446.15984344 C140.53015828 446.20496995 145.64665514 446.06901566 150.81975174 445.68498993 C163.32291669 444.78505992 175.85877341 444.50996121 188.38615799 444.12248993 C189.77488087 444.07914925 191.1636036 444.03580408 192.5523262 443.99245453 C271.56485379 441.53772104 271.56485379 441.53772104 295.93840408 442.78142548 C304.87762647 443.20870456 313.75905737 443.03726874 322.69865799 442.74748993 C323.38950485 442.7259787 324.08035172 442.70446747 324.79213333 442.68230438 C332.98747508 442.4457495 332.98747508 442.4457495 341.12517166 441.53801727 C344.38615799 441.12248993 344.38615799 441.12248993 347.26115799 442.12248993 C349.38615799 444.12248993 349.38615799 444.12248993 350.51115799 447.49748993 C350.38615799 451.12248993 350.38615799 451.12248993 348.26115799 453.68498993 C346.83803299 454.89155243 346.83803299 454.89155243 345.38615799 456.12248993 C343.69883522 458.10509419 342.03249741 460.10572413 340.38615799 462.12248993 C339.56115799 463.09186493 338.73615799 464.06123993 337.88615799 465.05998993 C336.02679427 467.33771049 334.35610657 469.58179508 332.69865799 471.99748993 C331.93553299 473.02873993 331.17240799 474.05998993 330.38615799 475.12248993 C329.72615799 475.12248993 329.06615799 475.12248993 328.38615799 475.12248993 C327.72615799 476.44248993 327.06615799 477.76248993 326.38615799 479.12248993 C325.72615799 479.12248993 325.06615799 479.12248993 324.38615799 479.12248993 C324.17088455 479.65745087 323.95561111 480.1924118 323.73381424 480.74358368 C321.54632945 484.60496987 318.33947679 487.60368468 315.28654861 490.78850555 C312.98884044 493.22695218 311.45962985 494.90207434 310.38615799 498.12248993 C309.39615799 498.45248993 308.40615799 498.78248993 307.38615799 499.12248993 C306.94529861 500.00420868 306.50443924 500.88592743 306.05022049 501.79436493 C304.11769178 505.65942235 301.73482678 508.29040613 298.76115799 511.37248993 C295.16869023 514.9477096 295.16869023 514.9477096 292.38615799 519.12248993 C291.72615799 519.12248993 291.06615799 519.12248993 290.38615799 519.12248993 C290.11803299 519.69483368 289.84990799 520.26717743 289.57365799 520.85686493 C288.34483163 523.20133627 286.96093623 525.24653931 285.38615799 527.37248993 C284.61272049 528.4320993 284.61272049 528.4320993 283.82365799 529.51311493 C283.34928299 530.04420868 282.87490799 530.57530243 282.38615799 531.12248993 C281.72615799 531.12248993 281.06615799 531.12248993 280.38615799 531.12248993 C280.30365799 531.67936493 280.22115799 532.23623993 280.13615799 532.80998993 C279.14720258 535.85926912 277.53858333 537.77438956 275.38615799 540.12248993 C274.72615799 540.12248993 274.06615799 540.12248993 273.38615799 540.12248993 C273.03037674 540.95780243 273.03037674 540.95780243 272.66740799 541.80998993 C270.55751633 545.61808706 267.4455179 548.52680795 264.47990799 551.68498993 C262.66043574 553.8031815 261.47157306 555.57412411 260.38615799 558.12248993 C259.72615799 558.12248993 259.06615799 558.12248993 258.38615799 558.12248993 C258.38615799 558.78248993 258.38615799 559.44248993 258.38615799 560.12248993 C257.42407449 561.15902036 256.41668835 562.15398223 255.38615799 563.12248993 C252.05852691 566.79373508 248.84669213 570.56739732 245.65959549 574.36077118 C245.1813533 574.92940887 244.70311111 575.49804657 244.21037674 576.08391571 C243.26546165 577.20934524 242.32264801 578.33654352 241.38225174 579.46575165 C239.26825444 581.98493176 237.14779524 584.35796781 234.80412674 586.67327118 C232.33218549 589.17715998 230.36451747 591.75978145 228.32365799 594.62248993 C224.47723905 599.84491565 220.31814815 604.54380712 215.84904861 609.2365036 C211.51142674 613.84487883 207.83360402 618.76145496 204.22600174 623.95452118 C203.6188533 624.66995087 203.01170486 625.38538055 202.38615799 626.12248993 C201.39615799 626.12248993 200.40615799 626.12248993 199.38615799 626.12248993 C199.25080643 627.22657196 199.25080643 627.22657196 199.11272049 628.35295868 C198.25794361 631.6112211 197.06376724 633.00347012 194.76115799 635.43498993 C194.04443924 636.20842743 193.32772049 636.98186493 192.58928299 637.77873993 C191.86225174 638.55217743 191.13522049 639.32561493 190.38615799 640.12248993 C189.0866753 641.55292824 187.79441509 642.98997773 186.51115799 644.43498993 C185.95686111 645.04987274 185.40256424 645.66475555 184.83147049 646.29827118 C183.31645797 648.07648048 183.31645797 648.07648048 182.37053299 650.20452118 C181.07601405 652.72677833 179.09602111 654.03500693 176.90568924 655.76702118 C174.54102046 657.87637868 173.04016989 660.44184996 171.38615799 663.12248993 C169.76115799 665.49748993 169.76115799 665.49748993 168.38615799 667.12248993 C167.72615799 667.12248993 167.06615799 667.12248993 166.38615799 667.12248993 C166.15799393 667.66002899 165.92982986 668.19756805 165.69475174 668.75139618 C163.98466247 671.84997584 161.75647657 674.40032098 159.44865799 677.05998993 C158.45512218 678.22010659 157.46163397 679.38026402 156.46818924 680.54045868 C155.70369461 681.42870331 155.70369461 681.42870331 154.92375565 682.33489227 C152.4837627 685.17160684 150.05778347 688.02009047 147.63615799 690.87248993 C147.17934647 691.40890106 146.72253494 691.94531219 146.25188065 692.49797821 C142.92417373 696.42677256 139.77288527 700.46134789 136.72600174 704.61077118 C136.2838533 705.10963837 135.84170486 705.60850555 135.38615799 706.12248993 C134.72615799 706.12248993 134.06615799 706.12248993 133.38615799 706.12248993 C133.38615799 706.78248993 133.38615799 707.44248993 133.38615799 708.12248993 C132.42486392 709.15975253 131.41619492 710.15345746 130.38615799 711.12248993 C127.0948475 714.70398556 123.96265606 718.25774282 121.26115799 722.30998993 C119.24344401 725.33656089 116.961105 727.55496351 114.38615799 730.12248993 C112.61023704 732.12712797 110.8609829 734.13778813 109.13615799 736.18498993 C108.65799637 736.7500827 108.17983475 737.31517548 107.68718338 737.89739227 C104.594726 741.5865495 101.67319968 745.36543224 98.82365799 749.24748993 C95.1062189 754.30161106 91.03342117 758.8510027 86.75334549 763.43108368 C83.74381291 766.85281297 81.23351093 770.5002593 78.76115799 774.32170868 C78.30740799 774.91596649 77.85365799 775.5102243 77.38615799 776.12248993 C76.72615799 776.12248993 76.06615799 776.12248993 75.38615799 776.12248993 C75.38615799 776.78248993 75.38615799 777.44248993 75.38615799 778.12248993 C74.72615799 778.12248993 74.06615799 778.12248993 73.38615799 778.12248993 C73.30365799 778.67936493 73.22115799 779.23623993 73.13615799 779.80998993 C72.1503797 782.84947299 70.42393772 784.66421597 68.38615799 787.12248993 C67.7119783 787.93846649 67.03779861 788.75444305 66.34318924 789.59514618 C65.63549393 790.44979462 64.92779861 791.30444305 64.19865799 792.18498993 C60.10798667 797.15849147 56.28567099 802.26594499 52.52678299 807.49358368 C50.35993899 810.15468954 48.08138886 812.0188951 45.38615799 814.12248993 C43.9184679 815.84512563 43.9184679 815.84512563 42.69865799 817.68498993 C39.38947829 822.26824657 35.61756917 826.34988097 31.78850174 830.50139618 C29.79599083 832.67533897 27.85524092 834.8735779 25.94865799 837.12248993 C24.6519208 838.64062128 23.34823348 840.15960539 21.92131424 841.55608368 C20.18800612 843.32467543 18.74863975 845.20527386 17.26115799 847.18498993 C13.80173215 851.69407062 10.06035511 855.88213067 6.20647049 860.05608368 C4.34507181 861.99162192 4.34507181 861.99162192 3.38615799 864.12248993 C2.72615799 864.12248993 2.06615799 864.12248993 1.38615799 864.12248993 C1.38615799 865.11248993 1.38615799 866.10248993 1.38615799 867.12248993 C-0.2581403 868.81122871 -1.92768419 870.47554508 -3.61384201 872.12248993 C-4.17071701 873.05061493 -4.72759201 873.97873993 -5.30134201 874.93498993 C-5.73446701 875.65686493 -6.16759201 876.37873993 -6.61384201 877.12248993 C-7.27384201 877.12248993 -7.93384201 877.12248993 -8.61384201 877.12248993 C-8.95415451 877.92686493 -8.95415451 877.92686493 -9.30134201 878.74748993 C-11.0695429 881.94709154 -13.15054404 884.41286216 -15.61384201 887.12248993 C-16.27384201 887.12248993 -16.93384201 887.12248993 -17.61384201 887.12248993 C-17.61384201 888.44248993 -17.61384201 889.76248993 -17.61384201 891.12248993 C-19.24644915 892.497317 -20.91609264 893.8289666 -22.61384201 895.12248993 C-22.94384201 895.78248993 -23.27384201 896.44248993 -23.61384201 897.12248993 C-24.61384201 899.12248993 -24.61384201 899.12248993 -26.87165451 900.85686493 C-29.92477304 903.37938452 -32.16317922 906.2051412 -34.48884201 909.37248993 C-37.29403735 913.11309683 -40.09926672 916.77667505 -43.23884201 920.24748993 C-46.81672707 924.2163078 -49.85260739 928.52638468 -52.91462326 932.89983368 C-54.61384201 935.12248993 -54.61384201 935.12248993 -56.61384201 936.12248993 C-56.94384201 937.11248993 -57.27384201 938.10248993 -57.61384201 939.12248993 C-58.71179069 940.25474951 -59.81711925 941.38056278 -60.95368576 942.47405243 C-65.68684495 947.17380108 -70.47835362 952.09249702 -74.05134201 957.74748993 C-74.56696701 958.53123993 -75.08259201 959.31498993 -75.61384201 960.12248993 C-76.27384201 960.12248993 -76.93384201 960.12248993 -77.61384201 960.12248993 C-77.67442795 960.65745087 -77.73501389 961.1924118 -77.79743576 961.74358368 C-78.97591886 965.17753682 -81.29859887 967.51980126 -83.67634201 970.18498993 C-87.94621555 975.09030243 -91.86890373 980.11029862 -95.63337326 985.41936493 C-98.46890596 989.28955946 -101.54132056 992.94799546 -104.63337326 996.61467743 C-106.53720222 999.02544309 -108.08506051 1001.46276774 -109.61384201 1004.12248993 C-111.17634201 1006.43498993 -111.17634201 1006.43498993 -112.61384201 1008.12248993 C-113.27384201 1008.12248993 -113.93384201 1008.12248993 -114.61384201 1008.12248993 C-114.79946701 1008.78248993 -114.98509201 1009.44248993 -115.17634201 1010.12248993 C-116.90598404 1013.73217764 -119.21755815 1016.20951881 -121.89118576 1019.15764618 C-124.07450917 1021.64792209 -125.79016382 1024.35934115 -127.61384201 1027.12248993 C-128.97066462 1028.9279613 -130.34726409 1030.7186686 -131.73884201 1032.49748993 C-132.7636467 1033.80846649 -132.7636467 1033.80846649 -133.80915451 1035.14592743 C-134.40470139 1035.79819305 -135.00024826 1036.45045868 -135.61384201 1037.12248993 C-136.27384201 1037.12248993 -136.93384201 1037.12248993 -137.61384201 1037.12248993 C-137.72470139 1037.71674774 -137.83556076 1038.31100555 -137.94977951 1038.92327118 C-138.6828729 1041.35110399 -139.53117826 1042.46078186 -141.23884201 1044.30998993 C-145.55274464 1049.13990962 -149.51681868 1054.23368433 -153.32087326 1059.47405243 C-153.85067795 1060.2036618 -154.38048264 1060.93327118 -154.92634201 1061.68498993 C-155.39684982 1062.34627899 -155.86735764 1063.00756805 -156.35212326 1063.68889618 C-156.97667404 1064.39852509 -156.97667404 1064.39852509 -157.61384201 1065.12248993 C-158.27384201 1065.12248993 -158.93384201 1065.12248993 -159.61384201 1065.12248993 C-160.27384201 1066.44248993 -160.93384201 1067.76248993 -161.61384201 1069.12248993 C-162.27384201 1069.12248993 -162.93384201 1069.12248993 -163.61384201 1069.12248993 C-163.94384201 1070.77248993 -164.27384201 1072.42248993 -164.61384201 1074.12248993 C-165.60384201 1074.45248993 -166.59384201 1074.78248993 -167.61384201 1075.12248993 C-167.7517717 1075.67936493 -167.88970139 1076.23623993 -168.03181076 1076.80998993 C-168.88150536 1080.18595773 -170.82396321 1082.36978446 -172.92634201 1085.12248993 C-174.09616623 1086.66936493 -174.09616623 1086.66936493 -175.28962326 1088.24748993 C-177.28801813 1090.71945401 -179.33317214 1092.91721411 -181.61384201 1095.12248993 C-186.43102211 1100.31219862 -190.8817976 1105.83200459 -195.36384201 1111.30998993 C-195.93094894 1111.9993161 -196.49805588 1112.68864227 -197.08234787 1113.39885712 C-199.89300389 1116.85310778 -202.38734858 1120.25280167 -204.61384201 1124.12248993 C-205.94717534 1125.45582326 -207.28050868 1126.7891566 -208.61384201 1128.12248993 C-210.680774 1130.73982307 -212.63986392 1133.43472923 -214.61384201 1136.12248993 C-215.5921579 1137.4148011 -216.57131896 1138.7064729 -217.55134201 1139.99748993 C-219.80349575 1142.99644138 -221.9719752 1146.0438506 -224.11384201 1149.12248993 C-227.18470474 1153.53348793 -230.35050111 1157.85246289 -233.61384201 1162.12248993 C-234.14622482 1162.83018524 -234.67860764 1163.53788055 -235.22712326 1164.26702118 C-238.33228735 1168.34299519 -241.55869164 1172.1842915 -245.05134201 1175.93498993 C-249.33373602 1180.59136013 -252.64125159 1185.48564792 -255.98493576 1190.84905243 C-256.79124435 1191.97440399 -256.79124435 1191.97440399 -257.61384201 1193.12248993 C-258.27384201 1193.12248993 -258.93384201 1193.12248993 -259.61384201 1193.12248993 C-259.73372482 1193.9365329 -259.73372482 1193.9365329 -259.85602951 1194.76702118 C-260.8896523 1197.97977654 -262.68043941 1200.14104419 -264.73884201 1202.80998993 C-265.34671555 1203.60445526 -265.34671555 1203.60445526 -265.96686935 1204.4149704 C-268.36704331 1207.54435895 -270.80496876 1210.64430153 -273.23884201 1213.74748993 C-276.19441338 1217.52142317 -278.92431878 1221.41955624 -281.64509201 1225.36467743 C-284.39551804 1229.21745674 -287.30250617 1232.94359296 -290.23810959 1236.65666962 C-292.37354286 1239.38497491 -294.08092024 1242.02785913 -295.61384201 1245.12248993 C-296.27384201 1245.45248993 -296.93384201 1245.78248993 -297.61384201 1246.12248993 C-298.26597493 1248.14712248 -298.26597493 1248.14712248 -298.61384201 1250.12248993 C-303.10398677 1251.20012467 -304.94395147 1251.5000646 -309.05134201 1249.18498993 C-309.89696701 1248.50436493 -310.74259201 1247.82373993 -311.61384201 1247.12248993 C-311.35860764 1246.24463837 -311.35860764 1246.24463837 -311.09821701 1245.34905243 C-307.85926143 1233.87488 -305.37867291 1222.20088179 -303.10212326 1210.50139618 C-302.5345658 1207.73625624 -301.88827429 1204.99455376 -301.23884201 1202.24748993 C-297.50816228 1186.10005292 -294.77620578 1170.05208866 -292.93928146 1153.57585907 C-292.60573554 1151.06137818 -292.12676071 1148.60593509 -291.61384201 1146.12248993 C-291.29341447 1144.01951589 -290.98141508 1141.91524622 -290.67634201 1139.80998993 C-290.12984691 1136.19502604 -289.56960762 1132.65204955 -288.61384201 1129.12248993 C-287.12490574 1123.54763551 -286.45257387 1117.82352049 -285.61384201 1112.12248993 C-283.7832625 1099.82054291 -281.57941272 1087.64232167 -279.08698654 1075.45793915 C-277.51920635 1067.71935025 -276.06801642 1059.9584534 -274.79743576 1052.16545868 C-274.66216476 1051.33610809 -274.52689377 1050.50675751 -274.38752365 1049.65227509 C-274.12605132 1048.03412481 -273.86858613 1046.41532084 -273.61555099 1044.79582977 C-272.72221812 1039.23086604 -272.72221812 1039.23086604 -271.61384201 1038.12248993 C-271.33088572 1036.04337629 -271.08961023 1033.95858832 -270.86384201 1031.87248993 C-269.86061802 1023.47048897 -267.87557184 1015.365709 -265.83259201 1007.16545868 C-264.1001943 1000.14798764 -262.69057356 993.0925669 -261.67634201 985.93498993 C-258.5068361 964.94310848 -254.12103484 943.3724017 -248.11384201 922.99748993 C-246.4421686 917.06348692 -245.57263351 911.02811982 -244.70368576 904.93450165 C-244.01133341 900.18343036 -242.99830962 895.73213776 -241.61384201 891.12248993 C-240.93272853 888.40145695 -240.30523485 885.66850681 -239.67634201 882.93498993 C-238.56138046 878.12816398 -237.4231477 873.33468897 -236.17634201 868.55998993 C-233.90656634 859.56677067 -232.14915387 850.45223772 -230.28425217 841.36858368 C-229.61506475 838.12841038 -228.93475242 834.89077575 -228.25056076 831.65373993 C-228.02868088 830.60089813 -227.80680099 829.54805634 -227.57819748 828.46331024 C-227.15837895 826.47271002 -226.73695519 824.48244733 -226.31354904 822.49260712 C-225.29160761 817.62711077 -224.37780067 812.76683674 -223.59431076 807.85686493 C-222.88785587 803.49129082 -221.87539578 799.36497316 -220.61384201 795.12248993 C-219.90786956 791.73348277 -219.33879821 788.32003464 -218.75837326 784.90764618 C-218.07449544 781.06175261 -217.06616276 777.72917577 -215.61384201 774.12248993 C-214.71585147 770.83011012 -213.94774731 767.50899163 -213.17634201 764.18498993 C-212.95679855 763.25291718 -212.7372551 762.32084442 -212.51105881 761.36052704 C-211.00739863 754.93660275 -209.5958744 748.49979139 -208.28962326 742.03264618 C-207.61384201 739.12248993 -207.61384201 739.12248993 -206.62556076 736.30608368 C-205.34861763 732.28790354 -204.73879247 728.28424795 -204.11384201 724.12248993 C-203.32891397 718.8953867 -202.30648538 714.1427163 -200.61384201 709.12248993 C-199.86898859 705.82499197 -199.24228213 702.50639413 -198.61384201 699.18498993 C-197.51440458 693.40005939 -196.26810559 687.7803494 -194.61384201 682.12248993 C-194.29433259 680.48183441 -194.00104112 678.83577412 -193.73884201 677.18498993 C-192.88836888 672.31839369 -191.80334305 667.53996444 -190.61384201 662.74748993 C-190.44771408 662.06952362 -190.28158615 661.39155731 -190.11042404 660.69304657 C-189.40100541 657.88013542 -188.64455045 655.19590401 -187.52399826 652.51702118 C-186.44677215 649.68294561 -186.23411453 647.20656973 -186.05134201 644.18498993 C-185.76973064 640.10665378 -185.39543686 636.14212058 -184.61384201 632.12248993 C-187.65047412 631.11027923 -189.70201094 630.98996206 -192.87946701 630.97722626 C-193.97581467 630.97093201 -195.07216232 630.96463776 -196.20173264 630.95815277 C-197.41022873 630.95695435 -198.61872482 630.95575592 -199.86384201 630.95452118 C-201.1445256 630.95042236 -202.4252092 630.94632355 -203.74470139 630.94210052 C-207.29020513 630.93262025 -210.83566173 630.93174084 -214.38117599 630.93381119 C-216.61302975 630.9349895 -218.84487875 630.93445786 -221.07673264 630.93379974 C-247.59744583 630.93546521 -274.10172995 631.4136737 -300.61384201 632.05998993 C-301.9789592 632.09271185 -301.9789592 632.09271185 -303.37165451 632.12609482 C-308.65500263 632.25274226 -313.93819367 632.38411612 -319.22123337 632.52305984 C-320.82889468 632.56514782 -322.43658073 632.6063034 -324.04429245 632.64641953 C-331.99949171 632.84730104 -339.90943819 633.15982598 -347.83787155 633.88516998 C-352.52090133 634.28552596 -357.21127419 634.46823288 -361.90681076 634.65764618 C-362.93711914 634.70062332 -363.96742752 634.74360046 -365.02895737 634.78787994 C-367.19269782 634.8773389 -369.35649207 634.96550525 -371.52033615 635.05242157 C-374.77631425 635.18397869 -378.03197879 635.32192945 -381.28767014 635.46038055 C-387.39544121 635.71461655 -393.50373689 635.93283471 -399.61384201 636.12248993 C-400.50122055 636.15155426 -401.38859909 636.18061859 -402.30286789 636.21056366 C-404.69434401 636.28154079 -407.08493173 636.33007492 -409.47712326 636.36858368 C-410.79623703 636.39492889 -412.1153508 636.42127411 -413.47443771 636.44841766 C-416.61384201 636.12248993 -416.61384201 636.12248993 -418.50251389 634.76873016 C-420.30075994 632.10493992 -420.53599006 630.362614 -420.61384201 627.12248993 C-419.66751501 623.78967506 -418.31188071 620.66870134 -416.92634201 617.49748993 C-416.18022751 615.71994361 -415.43672727 613.94129766 -414.69587326 612.16155243 C-414.15567551 610.8723288 -414.15567551 610.8723288 -413.60456467 609.55706024 C-411.68174027 604.8319728 -410.11927861 599.9953505 -408.61384201 595.12248993 C-407.95384201 595.12248993 -407.29384201 595.12248993 -406.61384201 595.12248993 C-406.49009201 594.16342743 -406.49009201 594.16342743 -406.36384201 593.18498993 C-405.31700191 588.91039286 -403.45104251 585.10886838 -401.61384201 581.12248993 C-399.28962279 575.76668041 -397.051329 570.37638828 -394.80915451 564.98577118 C-392.95089037 560.53443911 -391.04304538 556.10608098 -389.11384201 551.68498993 C-387.8276303 548.63023712 -386.63033212 545.56039572 -385.48493576 542.45061493 C-384.84735934 540.74659903 -384.19103684 539.04956497 -383.52399826 537.35686493 C-381.0157454 530.97804935 -378.74075808 524.57422374 -376.61384201 518.05998993 C-373.45800686 508.42718362 -369.60278149 499.18831166 -365.41071701 489.96233368 C-364.51004385 487.95587692 -364.51004385 487.95587692 -363.61384201 485.12248993 C-362.95384201 485.12248993 -362.29384201 485.12248993 -361.61384201 485.12248993 C-361.37149826 484.01905243 -361.12915451 482.91561493 -360.87946701 481.77873993 C-359.55943129 476.50786046 -357.4768862 471.61699782 -355.36384201 466.62248993 C-352.01212994 458.58984558 -348.84272562 450.52929133 -345.90290451 442.33733368 C-344.70924098 439.36040917 -343.26943223 436.85603312 -341.61384201 434.12248993 C-340.81082991 431.91111785 -340.81082991 431.91111785 -340.23884201 429.62248993 C-337.8197503 421.13667083 -334.68125088 412.90453386 -330.58259201 405.08733368 C-329.03474671 401.9479539 -327.81840871 398.68230299 -326.54743576 395.42327118 C-325.61384201 393.12248993 -325.61384201 393.12248993 -324.11384201 390.18498993 C-322.72739729 387.35433195 -321.70516617 384.59687262 -320.67634201 381.62248993 C-319.14811086 377.28957401 -317.20627546 373.92472565 -314.61384201 370.12248993 C-314.17083253 368.50942669 -313.72887173 366.89606719 -313.29255295 365.28118134 C-311.84825748 360.6874905 -309.75460651 356.32992438 -307.80134201 351.93498993 C-306.8944569 349.87276911 -305.98819968 347.81027205 -305.08259201 345.74748993 C-304.65204514 344.76909149 -304.22149826 343.79069305 -303.77790451 342.78264618 C-301.65224121 337.92500622 -299.62827135 333.02718746 -297.61384201 328.12248993 C-294.42928909 320.41665818 -291.17697451 312.75463633 -287.72321701 305.16545868 C-286.04856012 301.4542487 -284.443051 297.7227719 -282.91071701 293.95061493 C-282.6049675 293.19909149 -282.29921799 292.44756805 -281.98420334 291.67327118 C-281.37347591 290.16699135 -280.76639679 288.6592259 -280.16340256 287.14983368 C-278.57856358 283.23934292 -276.82153034 279.72838086 -274.61384201 276.12248993 C-273.2873714 273.46079072 -272.04659865 270.76045577 -270.80134201 268.05998993 C-268.43808118 262.97718962 -266.03900513 257.92765756 -263.48884201 252.93498993 C-261.32598985 248.66789949 -259.4033554 244.34589204 -257.55134201 239.93498993 C-255.89860963 236.00114254 -254.20859439 232.2408018 -252.05134201 228.55998993 C-249.44281752 224.06568499 -247.72527073 219.34593017 -245.91462326 214.48577118 C-244.25026269 210.18242448 -242.32439409 206.03597853 -240.35602951 201.86467743 C-238.98566229 198.95041721 -237.67235736 196.01380139 -236.37165451 193.06780243 C-235.78142502 191.73567719 -235.78142502 191.73567719 -235.1792717 190.37664032 C-234.40230361 188.61985747 -233.62932935 186.86130129 -232.86091232 185.10076141 C-231.24134331 181.45313208 -229.64663623 178.17159358 -227.42243576 174.84123993 C-225.61246156 172.12041478 -224.94256847 170.22696334 -224.30134201 167.05998993 C-222.86953547 161.30941911 -220.34947232 156.608863 -217.45368576 151.46623993 C-213.92679459 145.05643348 -210.98206869 138.35713665 -208.13337326 131.62248993 C-206.71088217 128.34600659 -205.17387537 125.17877155 -203.55134201 121.99748993 C-197.39307381 109.81402332 -191.60780196 97.4431147 -185.86384201 85.05998993 C-182.90149726 78.68496774 -179.79942909 72.38864473 -176.61384201 66.12248993 C-175.95384201 66.12248993 -175.29384201 66.12248993 -174.61384201 66.12248993 C-174.48429123 64.8637204 -174.48429123 64.8637204 -174.35212326 63.57952118 C-173.49235011 59.55359928 -171.81067973 56.35035958 -169.80134201 52.80998993 C-169.07370512 51.49098564 -168.34843233 50.17067434 -167.62556076 48.84905243 C-167.27799728 48.21386688 -166.93043381 47.57868134 -166.5723381 46.92424774 C-164.70425559 43.41267134 -163.15631498 39.78586323 -161.61384201 36.12248993 C-160.95384201 36.12248993 -160.29384201 36.12248993 -159.61384201 36.12248993 C-159.50298264 35.4083493 -159.39212326 34.69420868 -159.27790451 33.95842743 C-158.55941855 30.89006974 -157.44990796 28.53679765 -155.98884201 25.74748993 C-153.13872162 20.20597256 -150.47810993 14.60096143 -147.88679123 8.93547821 C-145.71722616 4.22587408 -145.71722616 4.22587408 -144.61384201 3.12248993 C-142.87948619 2.97465616 -141.13931271 2.89462396 -139.39948654 2.84123993 C-137.71311333 2.78608719 -137.71311333 2.78608719 -135.99267197 2.72982025 C-134.75648621 2.69440125 -133.52030045 2.65898224 -132.24665451 2.62248993 C-130.3286277 2.56198959 -130.3286277 2.56198959 -128.37185287 2.50026703 C-124.88795733 2.39075414 -121.40390226 2.28758731 -117.91976166 2.186203 C-115.73239926 2.12230171 -113.54507965 2.05709509 -111.35776901 1.99144745 C-104.06354637 1.77262769 -96.76920722 1.55851188 -89.47468185 1.35002899 C-84.00537552 1.19369121 -78.53651268 1.02676609 -73.06783676 0.84975433 C-48.71604179 0.07124677 -24.36201487 0.01971562 0 0 Z M20.06193924 7.24358368 C19.07984985 7.26719467 18.09776047 7.29080566 17.0859108 7.31513214 C13.95665648 7.39115488 10.82768202 7.47505547 7.69865799 7.55998993 C3.61150037 7.66633037 -0.47573209 7.76903761 -4.56306076 7.86858368 C-5.58186325 7.89350388 -6.60066574 7.91842407 -7.65034103 7.94409943 C-14.91998269 8.11089649 -22.18229705 8.14638135 -29.45345688 8.12163544 C-40.19262242 8.09599882 -50.92812203 8.29602598 -61.66511154 8.49480438 C-65.269054 8.560541 -68.87306843 8.61991586 -72.47712326 8.67913055 C-74.80655732 8.72106225 -77.13598472 8.76336644 -79.46540451 8.80608368 C-80.52393631 8.82279617 -81.58246811 8.83950867 -82.67307663 8.8567276 C-88.52639763 8.97203114 -94.30768452 9.2944571 -100.13267136 9.88739777 C-104.36833646 10.28872916 -108.61401724 10.44405448 -112.86384201 10.62248993 C-114.69068854 10.70923369 -116.51751141 10.7964769 -118.34431076 10.88420868 C-121.61745772 11.03792492 -124.88947051 11.16583286 -128.16462326 11.26702118 C-129.50188397 11.32250394 -130.83912519 11.37845937 -132.17634201 11.43498993 C-133.9107756 11.49106415 -133.9107756 11.49106415 -135.68024826 11.54827118 C-139.27835101 12.25256027 -140.38560461 13.25406851 -142.61384201 16.12248993 C-143.99579301 18.44315048 -143.99579301 18.44315048 -145.11384201 20.93498993 C-146.57839009 24.01325302 -148.07898461 26.96886322 -149.86384201 29.87248993 C-151.59191153 33.0817619 -152.26245052 35.52072713 -152.61384201 39.12248993 C-153.60384201 39.45248993 -154.59384201 39.78248993 -155.61384201 40.12248993 C-156.6159478 41.74005682 -156.6159478 41.74005682 -157.36384201 43.80998993 C-159.61703678 49.24723599 -162.26220454 54.45179003 -164.93024826 59.69280243 C-166.07608514 62.02701305 -167.14433564 64.40055897 -168.14118576 66.80217743 C-169.61384201 70.12248993 -169.61384201 70.12248993 -171.06696701 72.03264618 C-173.44915327 75.25100388 -174.80314464 78.88854779 -176.36384201 82.55998993 C-179.32651873 89.39433863 -182.55195885 95.92427981 -186.16071701 102.44280243 C-187.86701974 105.58937144 -189.23333861 108.82128615 -190.61384201 112.12248993 C-193.01336104 117.04818882 -195.47902814 121.94186721 -198.00837326 126.80217743 C-200.47534609 131.58706128 -202.45368971 136.22600735 -203.93806076 141.40764618 C-204.61384201 143.12248993 -204.61384201 143.12248993 -206.61384201 144.12248993 C-207.38140937 145.96750618 -207.38140937 145.96750618 -207.98884201 148.18498993 C-208.94885495 151.24263113 -209.99110615 154.04007815 -211.48884201 156.87248993 C-213.89061733 161.42852936 -215.55169145 166.2241936 -217.27009201 171.07170868 C-218.67168683 174.25381785 -220.40733227 176.45777353 -222.61384201 179.12248993 C-223.547331 180.99730272 -223.547331 180.99730272 -224.11384201 182.87248993 C-225.11426212 185.76079959 -226.2142129 188.53129847 -227.48884201 191.30998993 C-229.10474464 194.86255488 -230.47178707 198.45364931 -231.80134201 202.12248993 C-234.14051015 208.32164759 -237.12802445 213.99367392 -240.30036545 219.79070282 C-243.2708249 225.28630264 -245.57925096 230.77611629 -247.64118576 236.68108368 C-248.61384201 239.12248993 -248.61384201 239.12248993 -250.61384201 241.12248993 C-251.33217575 242.98122759 -251.33217575 242.98122759 -251.92634201 245.12248993 C-253.34891728 249.6382545 -255.30945542 253.68605334 -257.52790451 257.86077118 C-258.68358173 260.05962053 -258.68358173 260.05962053 -259.13727951 262.35295868 C-259.29454514 262.93690399 -259.45181076 263.5208493 -259.61384201 264.12248993 C-260.27384201 264.45248993 -260.93384201 264.78248993 -261.61384201 265.12248993 C-261.61384201 266.77248993 -261.61384201 268.42248993 -261.61384201 270.12248993 C-262.27384201 270.12248993 -262.93384201 270.12248993 -263.61384201 270.12248993 C-264.1333342 271.2336618 -264.65282639 272.34483368 -265.18806076 273.48967743 C-265.89223915 274.99239816 -266.59668425 276.49499393 -267.30134201 277.99748993 C-267.66711349 278.77817841 -268.03288498 279.55886688 -268.40974045 280.36321259 C-270.32901646 284.44485032 -272.28944133 288.49175068 -274.36384201 292.49748993 C-276.51944475 296.74359331 -278.1388588 301.09678486 -279.71149826 305.58733368 C-280.86979496 308.84159584 -282.21658363 311.96347098 -283.61384201 315.12248993 C-284.06888107 316.19885712 -284.52392014 317.2752243 -284.99274826 318.38420868 C-286.55435243 322.0357974 -288.26742209 325.60583857 -289.98884201 329.18498993 C-292.86676871 335.24927361 -295.18959737 341.38657121 -297.37946701 347.73577118 C-299.69350554 354.08473132 -302.66468766 360.13323944 -305.62897873 366.20012665 C-306.35228999 367.6805979 -307.07203619 369.16281567 -307.78840256 370.64665985 C-308.48314999 372.08457411 -309.18590137 373.51866095 -309.89826584 374.94792938 C-312.28424117 379.89382649 -313.6310648 384.72506492 -314.61384201 390.12248993 C-315.27384201 390.12248993 -315.93384201 390.12248993 -316.61384201 390.12248993 C-316.86778732 390.93073212 -317.12173264 391.7389743 -317.38337326 392.57170868 C-317.72755295 393.64034149 -318.07173264 394.7089743 -318.42634201 395.80998993 C-318.76278732 396.86573212 -319.09923264 397.9214743 -319.44587326 399.00920868 C-320.56622821 401.99557288 -321.9397998 404.42029582 -323.61384201 407.12248993 C-325.74855854 411.86281634 -327.51998276 416.7388289 -329.11384201 421.68498993 C-330.92842993 427.24582387 -333.24062112 432.53298768 -335.98102951 437.70061493 C-339.38109642 444.02309282 -339.38109642 444.02309282 -339.61384201 451.12248993 C-340.27384201 451.12248993 -340.93384201 451.12248993 -341.61384201 451.12248993 C-345.05120185 459.83605314 -345.05120185 459.83605314 -348.11384201 468.68498993 C-349.55839608 473.13970416 -351.37961127 477.40265782 -353.21540451 481.70842743 C-354.26301371 484.2659985 -355.25228354 486.8171362 -356.19977951 489.41155243 C-356.46621262 490.14043671 -356.73264572 490.86932098 -357.00715256 491.62029266 C-357.53037929 493.06290582 -358.04762668 494.50770382 -358.55842209 495.95476532 C-360.3954664 501.01330213 -360.3954664 501.01330213 -362.61384201 502.12248993 C-363.64616775 504.44749335 -364.55972701 506.73567385 -365.42634201 509.12248993 C-365.69350021 509.84307587 -365.96065842 510.5636618 -366.23591232 511.30608368 C-368.01219075 516.19243721 -369.4903823 521.11097176 -370.86384201 526.12248993 C-374.86194014 540.51836646 -381.31039259 554.22402786 -387.56159592 567.7587204 C-388.72907195 570.3813429 -389.69590179 573.05932829 -390.66852951 575.75920868 C-392.27575675 579.77727679 -394.1583511 583.67239322 -396.01374435 587.58049774 C-399.89433421 595.75421932 -399.89433421 595.75421932 -402.98884201 604.24748993 C-404.61339966 609.30359984 -406.61406697 614.19383585 -408.62556076 619.10686493 C-409.57946684 622.01759811 -409.90288291 624.09028727 -409.61384201 627.12248993 C-408.4292963 628.53432778 -408.4292963 628.53432778 -405.05134201 628.24748993 C-399.97426394 628.1991368 -394.92147463 627.83114836 -389.85871506 627.47844696 C-384.05953133 627.0967698 -378.31684291 627.0768527 -372.50446701 627.18498993 C-369.77974852 627.24718227 -369.77974852 627.24718227 -367.89411545 626.6361618 C-364.69150518 625.91471727 -361.50660469 625.90510268 -358.23884201 625.84123993 C-357.1300695 625.81416962 -357.1300695 625.81416962 -355.99889755 625.78655243 C-353.53729257 625.72754424 -351.07559351 625.67500102 -348.61384201 625.62248993 C-346.8596827 625.58185764 -345.10553241 625.54083397 -343.35139084 625.49944305 C-339.6480754 625.41287578 -335.94471157 625.32909058 -332.24128342 625.24748993 C-326.82757363 625.12803298 -321.41406243 625.00098481 -316.00056076 624.87248993 C-307.76095308 624.67775118 -299.52114897 624.49352189 -291.28118515 624.31452179 C-285.44670423 624.18711918 -279.6124977 624.05101995 -273.77834702 623.9093399 C-240.38552033 623.10586891 -207.01400215 623.00441045 -173.61384201 623.12248993 C-172.52555272 626.3873578 -172.7148282 627.49239076 -173.48884201 630.74748993 C-173.76341232 631.94245087 -173.76341232 631.94245087 -174.04352951 633.16155243 C-174.61384201 635.12248993 -174.61384201 635.12248993 -175.61384201 636.12248993 C-175.94629137 637.80328945 -176.22538518 639.49471331 -176.48102951 641.18889618 C-176.64474045 642.23239227 -176.80845139 643.27588837 -176.97712326 644.35100555 C-177.31398944 646.54577872 -177.64741458 648.74108325 -177.97712326 650.93694305 C-178.94329737 657.05230086 -180.27359557 662.39621934 -182.61384201 668.12248993 C-183.01193594 669.63242015 -183.37681505 671.1524588 -183.67634201 672.68498993 C-184.19421699 675.29409339 -184.80869475 677.7953265 -185.54987717 680.35466766 C-186.52730311 683.81602945 -187.37544676 687.27038802 -188.16462326 690.77873993 C-188.44829758 692.03662323 -188.73197189 693.29450653 -189.0242424 694.59050751 C-189.32502433 695.93448329 -189.62572228 697.27847786 -189.92634201 698.62248993 C-190.24062363 700.02054079 -190.55499641 701.41857116 -190.86945724 702.81658173 C-192.67304786 710.84860673 -194.44129391 718.88786985 -196.17634201 726.93498993 C-198.0189376 735.46806319 -199.91997534 743.9868988 -201.86384201 752.49748993 C-202.12237961 753.64064667 -202.38091721 754.78380341 -202.64728928 755.96160126 C-202.88890793 757.01242889 -203.13052658 758.06325653 -203.37946701 759.14592743 C-203.59377365 760.08355927 -203.80808029 761.0211911 -204.02888107 761.98723602 C-204.61384201 764.12248993 -204.61384201 764.12248993 -205.61384201 765.12248993 C-205.95549642 766.54558551 -206.24741724 767.98072242 -206.51618576 769.41936493 C-206.68440842 770.29592743 -206.85263107 771.17248993 -207.02595139 772.07561493 C-207.3732436 773.9243973 -207.71961403 775.77335308 -208.06501389 777.62248993 C-208.91313566 782.03401309 -209.91860412 785.95645998 -211.61384201 790.12248993 C-212.16730865 792.8538478 -212.66747002 795.56191748 -213.11384201 798.30998993 C-213.37085562 799.82705257 -213.62866525 801.34398058 -213.88727951 802.86077118 C-214.01070724 803.59118622 -214.13413498 804.32160126 -214.26130295 805.07415009 C-216.03720327 815.39257371 -216.03720327 815.39257371 -217.61384201 820.12248993 C-218.15091458 822.9840797 -218.63152629 825.85276663 -219.11384201 828.72405243 C-219.61384201 831.12248993 -219.61384201 831.12248993 -220.61384201 832.12248993 C-221.04482113 834.74557147 -221.43121409 837.36564755 -221.80134201 839.99748993 C-223.07882308 848.5773858 -224.79683469 857.03030661 -226.67634201 865.49748993 C-226.93375168 866.66779755 -227.19116135 867.83810516 -227.45637131 869.04387665 C-228.55720441 873.93053636 -229.72171871 878.48085242 -231.61384201 883.12248993 C-232.15841537 885.52950419 -232.65482911 887.94770439 -233.11384201 890.37248993 C-234.72349996 898.73466297 -234.72349996 898.73466297 -235.61384201 902.62248993 C-236.50147323 906.52513299 -237.27799373 910.44564375 -238.05134201 914.37248993 C-239.77766381 923.04747382 -241.60479867 931.68159874 -244.05134201 940.18498993 C-245.8398093 946.53452196 -247.0308403 953.00500426 -248.25617599 959.48210907 C-248.41803391 960.32507538 -248.57989182 961.16804169 -248.74665451 962.03655243 C-248.88990158 962.79919403 -249.03314865 963.56183563 -249.18073654 964.34758759 C-249.61384201 966.12248993 -249.61384201 966.12248993 -250.61384201 967.12248993 C-250.95978936 969.0341359 -251.24994026 970.95593676 -251.51618576 972.88030243 C-251.68440842 974.0636618 -251.85263107 975.24702118 -252.02595139 976.46623993 C-252.37294295 978.96354728 -252.71930927 981.4609416 -253.06501389 983.95842743 C-253.90330737 989.84879382 -254.88985581 995.4179177 -256.61384201 1001.12248993 C-257.17076778 1004.02743148 -257.60826614 1006.94831362 -258.05134201 1009.87248993 C-258.99533238 1015.82902102 -260.18300396 1021.54502119 -261.86774826 1027.34123993 C-264.89754487 1038.63556029 -266.31618296 1050.4271037 -268.12873459 1061.96160126 C-269.24155334 1068.98096061 -270.50719274 1075.93493801 -271.96149826 1082.89202118 C-272.79581643 1087.02364469 -273.4578042 1091.17389646 -274.08649826 1095.34123993 C-274.61384201 1098.12248993 -274.61384201 1098.12248993 -275.58259201 1101.30998993 C-276.86502699 1106.05111319 -277.45272749 1110.75532897 -278.05134201 1115.62248993 C-279.04719563 1123.35041624 -280.30582913 1130.90335904 -281.92634201 1138.52483368 C-282.93016325 1143.77778458 -283.51409025 1149.05336645 -284.08649826 1154.36858368 C-284.54094892 1157.60359909 -285.25184581 1160.62799668 -286.08088303 1163.78093719 C-287.5071516 1170.04724131 -288.16021829 1176.49781109 -289.02595139 1182.86077118 C-290.36908799 1192.3536968 -292.50315886 1201.44114721 -295.23884201 1210.62248993 C-296.84996673 1216.40060738 -297.3115022 1222.1486722 -297.61384201 1228.12248993 C-294.97447305 1227.75824581 -293.8992609 1227.49038114 -292.23493576 1225.34514618 C-291.84434982 1224.63229462 -291.45376389 1223.91944305 -291.05134201 1223.18498993 C-289.35945714 1220.12850284 -288.63873747 1219.1390869 -285.61384201 1217.12248993 C-284.73115687 1215.49291736 -283.84895433 1213.86308135 -282.96931076 1212.23186493 C-281.32253751 1209.66916304 -279.38484949 1207.59395461 -277.30134201 1205.37248993 C-273.3267506 1201.09165951 -270.27407914 1196.65608586 -267.25056076 1191.67327118 C-265.72473967 1189.29532089 -264.10993293 1187.23357825 -262.23884201 1185.12248993 C-259.47687631 1182.3561373 -259.47687631 1182.3561373 -258.61384201 1179.12248993 C-257.62384201 1178.46248993 -256.63384201 1177.80248993 -255.61384201 1177.12248993 C-253.71211331 1174.23186231 -252.11396214 1171.23812403 -250.61384201 1168.12248993 C-249.95384201 1168.12248993 -249.29384201 1168.12248993 -248.61384201 1168.12248993 C-246.79755425 1166.17873039 -246.79755425 1166.17873039 -244.98884201 1163.74748993 C-244.35720139 1162.93538055 -243.72556076 1162.12327118 -243.07477951 1161.28655243 C-241.42733393 1159.28139114 -241.42733393 1159.28139114 -241.61384201 1157.12248993 C-240.95384201 1157.12248993 -240.29384201 1157.12248993 -239.61384201 1157.12248993 C-239.28384201 1156.13248993 -238.95384201 1155.14248993 -238.61384201 1154.12248993 C-237.29866577 1152.77124346 -235.96302489 1151.43978303 -234.61384201 1150.12248993 C-233.4556784 1148.62675731 -232.33344981 1147.10284209 -231.23884201 1145.55998993 C-230.55048264 1144.60221649 -229.86212326 1143.64444305 -229.15290451 1142.65764618 C-228.56364182 1141.83611053 -228.56364182 1141.83611053 -227.96247482 1140.99797821 C-213.17168206 1120.42902998 -213.17168206 1120.42902998 -206.43415451 1113.18108368 C-199.85640246 1106.37512539 -199.85640246 1106.37512539 -196.61384201 1098.12248993 C-196.05181076 1097.90592743 -195.48977951 1097.68936493 -194.91071701 1097.46623993 C-191.84347436 1095.67179865 -190.08723629 1093.38356779 -187.86384201 1090.62248993 C-186.66501389 1089.15295868 -186.66501389 1089.15295868 -185.44196701 1087.65373993 C-183.41867849 1085.37266047 -183.41867849 1085.37266047 -183.61384201 1083.12248993 C-182.95384201 1083.12248993 -182.29384201 1083.12248993 -181.61384201 1083.12248993 C-179.92595487 1081.1358617 -178.35418512 1079.14825698 -176.80134201 1077.05998993 C-176.35210373 1076.46669891 -175.90286545 1075.8734079 -175.44001389 1075.26213837 C-173.1081876 1072.17052252 -170.83064807 1069.04791482 -168.61384201 1065.87248993 C-166.61384201 1063.12248993 -166.61384201 1063.12248993 -164.61384201 1062.12248993 C-163.95829082 1059.59515758 -163.95829082 1059.59515758 -163.61384201 1057.12248993 C-162.62384201 1056.79248993 -161.63384201 1056.46248993 -160.61384201 1056.12248993 C-158.65867116 1053.74336495 -158.65867116 1053.74336495 -156.73884201 1050.87248993 C-153.93935854 1046.90101064 -151.09939325 1043.51383708 -147.61384201 1040.12248993 C-146.74206689 1038.90574858 -145.88863794 1037.67571025 -145.05134201 1036.43498993 C-143.13297188 1033.62982607 -141.67502797 1032.60030384 -138.61384201 1031.12248993 C-138.33669357 1030.40448212 -138.05954514 1029.6864743 -137.77399826 1028.94670868 C-136.37453746 1025.53994047 -134.46769102 1022.98859386 -132.23884201 1020.05998993 C-131.46798264 1019.03776337 -130.69712326 1018.0155368 -129.90290451 1016.96233368 C-127.61384201 1014.12248993 -127.61384201 1014.12248993 -125.44977951 1011.97405243 C-123.70754079 1010.21698614 -122.71256541 1008.75253172 -121.61384201 1006.55998993 C-119.74284513 1003.34421405 -118.52543518 1002.20219934 -115.61384201 1000.12248993 C-115.61384201 999.13248993 -115.61384201 998.14248993 -115.61384201 997.12248993 C-115.03634201 996.91623993 -114.45884201 996.70998993 -113.86384201 996.49748993 C-111.4216039 995.00501108 -110.35634111 993.47452155 -108.85993576 991.07561493 C-104.14001126 983.67761415 -98.63269809 976.83297703 -93.04352951 970.08342743 C-88.46832111 964.50785191 -84.04175511 958.81526763 -79.61384201 953.12248993 C-78.94352951 952.26526337 -78.27321701 951.4080368 -77.58259201 950.52483368 C-74.66467806 947.20123446 -74.66467806 947.20123446 -73.61384201 943.12248993 C-72.97446701 942.87498993 -72.33509201 942.62748993 -71.67634201 942.37248993 C-69.4264266 941.3068656 -69.4264266 941.3068656 -68.86384201 938.99748993 C-68.78134201 938.37873993 -68.69884201 937.75998993 -68.61384201 937.12248993 C-67.62384201 937.12248993 -66.63384201 937.12248993 -65.61384201 937.12248993 C-65.05696701 936.07061493 -64.50009201 935.01873993 -63.92634201 933.93498993 C-61.92748464 930.4299513 -59.54572763 927.91135673 -56.61384201 925.12248993 C-55.70545877 924.049658 -54.80956541 922.96612831 -53.92634201 921.87248993 C-51.61384201 919.12248993 -51.61384201 919.12248993 -49.61384201 918.12248993 C-48.95829082 915.59515758 -48.95829082 915.59515758 -48.61384201 913.12248993 C-47.95384201 913.12248993 -47.29384201 913.12248993 -46.61384201 913.12248993 C-45.22647975 911.50052152 -43.9020179 909.82430027 -42.61384201 908.12248993 C-38.65593683 903.23192987 -34.68715817 898.35564456 -30.58259201 893.58733368 C-30.07864914 893.00016571 -29.57470627 892.41299774 -29.0554924 891.8080368 C-28.06413425 890.65593092 -27.06861357 889.50739185 -26.06867599 888.3627243 C-23.43813528 885.63390032 -23.43813528 885.63390032 -22.61384201 882.12248993 C-21.62384201 881.79248993 -20.63384201 881.46248993 -19.61384201 881.12248993 C-18.58772252 879.47177597 -17.59076058 877.80278987 -16.61384201 876.12248993 C-15.28050868 874.7891566 -13.94717534 873.45582326 -12.61384201 872.12248993 C-12.61384201 871.46248993 -12.61384201 870.80248993 -12.61384201 870.12248993 C-11.62384201 869.79248993 -10.63384201 869.46248993 -9.61384201 869.12248993 C-8.22084019 867.16358112 -6.89138755 865.15857813 -5.61384201 863.12248993 C-5.03634201 862.37998993 -4.45884201 861.63748993 -3.86384201 860.87248993 C-2.42009595 859.20967566 -2.42009595 859.20967566 -2.61384201 857.12248993 C-2.02860764 856.88401337 -1.44337326 856.6455368 -0.84040451 856.39983368 C1.85463342 854.85373297 3.14607159 853.16515801 5.01115799 850.68498993 C7.97250624 846.86105972 11.04145584 843.23773129 14.32365799 839.68498993 C22.84524445 831.00708172 22.84524445 831.00708172 29.38615799 820.93108368 C30.38615799 819.12248993 30.38615799 819.12248993 32.22990799 818.23186493 C35.37741303 816.61249639 36.80588312 814.21553226 38.88615799 811.37248993 C43.1463967 805.6292979 47.67146964 800.20038589 52.45061111 794.88127899 C55.17821995 791.78502529 57.14602136 789.07911631 58.38615799 785.12248993 C59.04615799 785.12248993 59.70615799 785.12248993 60.38615799 785.12248993 C62.00923083 783.19773069 63.51841689 781.2699043 65.01115799 779.24748993 C65.9059792 778.05532333 66.80182626 776.86392607 67.69865799 775.67327118 C68.14725174 775.07595184 68.59584549 774.47863251 69.05803299 773.86321259 C71.60994701 770.51851645 74.30471667 767.2880248 76.98772049 764.04827118 C78.58201999 762.24943115 78.58201999 762.24943115 78.38615799 760.12248993 C79.37615799 760.12248993 80.36615799 760.12248993 81.38615799 760.12248993 C81.94303299 759.07061493 82.49990799 758.01873993 83.07365799 756.93498993 C85.04786955 753.43943254 87.50633902 750.92231393 90.38615799 748.12248993 C90.38615799 747.46248993 90.38615799 746.80248993 90.38615799 746.12248993 C91.04615799 746.12248993 91.70615799 746.12248993 92.38615799 746.12248993 C92.72647049 745.28717743 92.72647049 745.28717743 93.07365799 744.43498993 C94.73918118 741.50049669 97.00836975 739.50027817 99.38615799 737.12248993 C99.71615799 736.13248993 100.04615799 735.14248993 100.38615799 734.12248993 C101.04615799 734.12248993 101.70615799 734.12248993 102.38615799 734.12248993 C102.71615799 732.80248993 103.04615799 731.48248993 103.38615799 730.12248993 C104.04615799 730.12248993 104.70615799 730.12248993 105.38615799 730.12248993 C106.74675889 728.63612235 106.74675889 728.63612235 108.01115799 726.74748993 C108.45717361 726.12100555 108.90318924 725.49452118 109.36272049 724.84905243 C110.55612768 723.1702635 110.55612768 723.1702635 110.38615799 721.12248993 C111.20793533 720.83631805 111.20793533 720.83631805 112.04631424 720.54436493 C115.46307144 718.46807174 117.44419122 715.5407483 119.82365799 712.37248993 C120.75898848 711.14786859 121.69518041 709.9239047 122.63225174 708.70061493 C123.08817703 708.10345673 123.54410233 707.50629852 124.01384354 706.89104462 C126.58324936 703.579752 129.18019191 700.28687097 132.19865799 697.37248993 C133.61574114 696.16818 133.61574114 696.16818 133.38615799 694.12248993 C134.37615799 694.12248993 135.36615799 694.12248993 136.38615799 694.12248993 C136.73678299 693.27686493 137.08740799 692.43123993 137.44865799 691.55998993 C139.43245282 688.04035394 141.47404193 685.92386803 144.35881424 683.17327118 C147.57338128 679.92154152 150.36869501 676.34446439 153.22990799 672.78264618 C155.08742242 670.49103871 156.99394061 668.26826735 158.94865799 666.05998993 C161.59901548 663.50215401 161.59901548 663.50215401 161.38615799 661.12248993 C162.12865799 660.93686493 162.87115799 660.75123993 163.63615799 660.55998993 C167.54477808 658.51684761 168.31497972 655.98868937 170.38615799 652.12248993 C171.37615799 651.46248993 172.36615799 650.80248993 173.38615799 650.12248993 C174.40001168 648.46421417 175.39843959 646.79646429 176.38615799 645.12248993 C178.44212944 642.72058064 180.58528452 640.42252545 182.74162674 638.11077118 C184.59860826 636.29567546 184.59860826 636.29567546 184.38615799 634.12248993 C185.04615799 634.12248993 185.70615799 634.12248993 186.38615799 634.12248993 C188.09767496 632.24263456 188.09767496 632.24263456 189.82365799 629.87248993 C190.42049393 629.08358368 191.01732986 628.29467743 191.63225174 627.48186493 C192.2110408 626.70327118 192.78982986 625.92467743 193.38615799 625.12248993 C193.95463455 624.40577118 194.52311111 623.68905243 195.10881424 622.95061493 C196.57707693 621.22094277 196.57707693 621.22094277 196.38615799 619.12248993 C197.37615799 618.79248993 198.36615799 618.46248993 199.38615799 618.12248993 C200.88730167 616.46980222 202.31589466 614.75042307 203.69865799 612.99748993 C206.38643274 609.62020434 209.08278536 606.28750839 211.94865799 603.05998993 C214.59901548 600.50215401 214.59901548 600.50215401 214.38615799 598.12248993 C215.04615799 598.12248993 215.70615799 598.12248993 216.38615799 598.12248993 C216.38615799 597.13248993 216.38615799 596.14248993 216.38615799 595.12248993 C217.04615799 595.12248993 217.70615799 595.12248993 218.38615799 595.12248993 C219.86385017 593.48816238 221.26885118 591.78772625 222.63615799 590.05998993 C225.34564409 586.66328361 228.06415944 583.30935345 230.94865799 580.05998993 C233.59901548 577.50215401 233.59901548 577.50215401 233.38615799 575.12248993 C233.96623611 574.88916962 234.54631424 574.6558493 235.14397049 574.41545868 C237.91920959 572.81510303 239.32160559 570.97821828 241.26115799 568.43498993 C243.72493547 565.24684341 246.21006637 562.13467837 248.88615799 559.12248993 C251.59955279 556.51727031 251.59955279 556.51727031 251.38615799 554.12248993 C252.04615799 554.12248993 252.70615799 554.12248993 253.38615799 554.12248993 C256.59413207 550.63221413 259.46100131 546.85120723 262.38615799 543.12248993 C263.33941971 541.91399384 263.33941971 541.91399384 264.31193924 540.68108368 C267.3084287 537.26900696 267.3084287 537.26900696 268.38615799 533.12248993 C269.37615799 532.79248993 270.36615799 532.46248993 271.38615799 532.12248993 C272.92732867 530.40534764 274.3984565 528.6245382 275.82365799 526.80998993 C278.53472506 523.37413674 281.28735202 520.20770464 284.38615799 517.12248993 C285.06883937 515.7972849 285.73686209 514.46436811 286.38615799 513.12248993 C287.36369443 512.10052001 288.36674609 511.10269368 289.38615799 510.12248993 C292.38418892 507.03097956 292.38418892 507.03097956 293.38615799 503.12248993 C294.37615799 502.79248993 295.36615799 502.46248993 296.38615799 502.12248993 C297.82417981 500.53142563 299.18941134 498.87388843 300.51115799 497.18498993 C305.55478773 490.86605413 310.70943859 484.53250429 316.64787674 479.02483368 C318.72343642 477.18286569 318.72343642 477.18286569 318.38615799 474.12248993 C318.98815018 473.86596649 319.59014236 473.60944305 320.21037674 473.34514618 C322.61764487 471.99240843 323.62456912 470.80544811 325.19865799 468.55998993 C328.01271604 464.61599042 330.99916117 460.85334102 334.06584549 457.10295868 C335.66350809 455.10316932 335.66350809 455.10316932 335.38615799 452.12248993 C323.69418198 451.05101479 312.07036792 450.96010706 300.33928299 450.95452118 C298.29667499 450.95057116 296.25406735 450.94642653 294.21146011 450.94210052 C288.79946839 450.93282883 283.38750796 450.93170294 277.97550964 450.93381119 C274.62831141 450.9349927 271.28111632 450.93445828 267.933918 450.93379974 C237.9844349 450.93506729 208.09984764 451.1509162 178.19060135 452.85466766 C172.01367283 453.20619366 165.83350147 453.4872962 159.65317154 453.77152252 C154.77597021 453.998682 149.90275283 454.26404943 145.02925491 454.56008148 C133.76571779 455.23628691 122.50531096 455.15923451 111.22743607 455.11251068 C91.60371417 455.0373259 72.00023475 455.55282417 52.38615799 456.12248993 C52.38615799 453.15248993 52.38615799 450.18248993 52.38615799 447.12248993 C53.70615799 446.46248993 55.02615799 445.80248993 56.38615799 445.12248993 C58.11961287 443.60447949 58.11961287 443.60447949 59.73381424 441.82170868 C60.64163651 440.85007782 60.64163651 440.85007782 61.56779861 439.85881805 C62.49882401 438.84464813 62.49882401 438.84464813 63.44865799 437.80998993 C64.07320877 437.14547821 64.69775955 436.48096649 65.34123611 435.79631805 C70.99588601 430.24640025 70.99588601 430.24640025 73.38615799 423.12248993 C74.04615799 423.12248993 74.70615799 423.12248993 75.38615799 423.12248993 C75.77803299 422.46248993 76.16990799 421.80248993 76.57365799 421.12248993 C78.67659758 417.64176233 81.20904641 414.87120495 83.96037674 411.89202118 C85.59529679 410.24167264 85.59529679 410.24167264 85.38615799 408.12248993 C86.04615799 408.12248993 86.70615799 408.12248993 87.38615799 408.12248993 C90.78572623 404.43212027 90.78572623 404.43212027 93.28459549 400.14202118 C95.04126693 396.92145686 97.87594464 395.06748245 100.70647049 392.80608368 C102.73930051 391.16489291 102.73930051 391.16489291 102.38615799 388.12248993 C103.37615799 388.12248993 104.36615799 388.12248993 105.38615799 388.12248993 C106.4311339 386.48364792 107.42441478 384.81152154 108.38615799 383.12248993 C109.71771147 381.70537478 111.09618399 380.33131847 112.51115799 378.99748993 C117.58687717 374.04556877 121.95691649 368.64857573 126.38615799 363.12248993 C130.57727077 358.06654435 134.9894053 353.39309774 139.76115799 348.87248993 C142.67759931 345.81717045 145.1965368 342.57750806 147.73772049 339.20842743 C149.38615799 337.12248993 149.38615799 337.12248993 151.09709549 335.47405243 C152.61621707 334.19256427 152.61621707 334.19256427 152.38615799 332.12248993 C153.37615799 331.79248993 154.36615799 331.46248993 155.38615799 331.12248993 C156.96632566 329.6017902 156.96632566 329.6017902 158.51115799 327.68498993 C161.25447694 324.4497256 164.03847151 321.26660794 166.88615799 318.12248993 C167.63768143 317.28717743 168.38920486 316.45186493 169.16350174 315.59123993 C170.61056669 313.98395513 172.06092492 312.37962725 173.51506424 310.77873993 C174.47219315 309.71139618 174.47219315 309.71139618 175.44865799 308.62248993 C176.01713455 307.99342743 176.58561111 307.36436493 177.17131424 306.71623993 C178.58823112 305.1913853 178.58823112 305.1913853 178.38615799 303.12248993 C178.97525955 302.88014618 179.56436111 302.63780243 180.17131424 302.38811493 C182.79608236 300.88824743 184.03620951 299.29978717 185.82365799 296.87248993 C186.42565018 296.07198212 187.02764236 295.2714743 187.64787674 294.44670868 C188.50832596 293.2962204 188.50832596 293.2962204 189.38615799 292.12248993 C191.84952744 288.98549131 194.02586055 286.36268822 197.38615799 284.12248993 C197.38615799 283.46248993 197.38615799 282.80248993 197.38615799 282.12248993 C198.04615799 282.12248993 198.70615799 282.12248993 199.38615799 282.12248993 C202.43010868 279.38293431 204.83012028 276.94185521 206.38615799 273.12248993 C207.04615799 273.12248993 207.70615799 273.12248993 208.38615799 273.12248993 C209.03584549 272.03967743 209.03584549 272.03967743 209.69865799 270.93498993 C211.58469617 267.79159296 213.73581609 265.64662507 216.38615799 263.12248993 C218.09026339 261.49412255 219.7664124 259.83479241 221.38615799 258.12248993 C221.38615799 257.46248993 221.38615799 256.80248993 221.38615799 256.12248993 C222.04615799 256.12248993 222.70615799 256.12248993 223.38615799 256.12248993 C223.59240799 255.56561493 223.79865799 255.00873993 224.01115799 254.43498993 C225.38615799 252.12248993 225.38615799 252.12248993 228.44865799 249.62248993 C231.46675022 247.0539008 231.6518027 246.67187384 232.38615799 243.12248993 C234.13615799 242.12248993 234.13615799 242.12248993 236.38615799 241.12248993 C239.06573612 239.22717857 241.02830691 237.74384954 242.67522049 234.88420868 C244.81461542 231.43089311 247.40816334 228.68186878 250.19865799 225.74748993 C251.28033726 224.59473489 252.36107728 223.44109773 253.44084549 222.28655243 C254.2099324 221.46525848 254.2099324 221.46525848 254.99455643 220.62737274 C256.65396218 218.83288554 258.25014726 216.99257859 259.82365799 215.12248993 C262.23107743 212.30404766 264.7666042 209.74204372 267.38615799 207.12248993 C268.72660771 205.62884595 270.05931451 204.12823365 271.38615799 202.62248993 C274.28419169 199.33516812 277.28717782 196.2214701 280.38615799 193.12248993 C283.73468778 189.43910716 287.01849526 185.69882697 290.28068924 181.93889618 C291.16820877 180.91602509 291.16820877 180.91602509 292.07365799 179.87248993 C292.59315018 179.26920868 293.11264236 178.66592743 293.64787674 178.04436493 C295.81214043 175.65151609 298.10305345 173.40227117 300.38615799 171.12248993 C302.49112655 168.93405846 304.56652067 166.71930646 306.63615799 164.49748993 C307.17756424 163.92514618 307.71897049 163.35280243 308.27678299 162.76311493 C310.62234716 160.24163345 312.28422013 158.4283035 313.38615799 155.12248993 C314.37615799 154.79248993 315.36615799 154.46248993 316.38615799 154.12248993 C318.5100274 151.8775669 318.5100274 151.8775669 320.57365799 149.18498993 C321.28908768 148.28909149 322.00451736 147.39319305 322.74162674 146.47014618 C324.57740356 144.32720197 324.57740356 144.32720197 324.38615799 142.12248993 C324.94303299 141.91623993 325.49990799 141.70998993 326.07365799 141.49748993 C329.2419853 139.61361964 331.14646567 136.984319 333.38615799 134.12248993 C342.09000886 123.12984864 342.09000886 123.12984864 345.51115799 120.49748993 C348.04350922 118.40554761 349.5825873 116.66077877 351.51115799 114.05998993 C354.49421632 110.07816927 357.77020486 106.64512004 361.32365799 103.18498993 C365.83729412 98.78414216 369.85671517 94.22141722 373.72600174 89.23186493 C376.32123587 85.93439097 379.2062834 83.12595608 382.39787674 80.41155243 C383.47488846 79.49502899 383.47488846 79.49502899 384.57365799 78.55998993 C385.24783768 78.00182587 385.92201736 77.4436618 386.61662674 76.86858368 C388.45584144 75.24738099 388.45584144 75.24738099 389.31193924 73.22014618 C390.82442233 70.2666792 392.98840054 68.40880231 395.38615799 66.12248993 C396.41709216 65.10788277 397.4456397 64.09084628 398.47209549 63.07170868 C399.00665359 62.54238739 399.5412117 62.0130661 400.09196854 61.46770477 C404.76860166 56.82322051 409.37495443 52.18074874 413.64006424 47.14983368 C415.86901747 44.56185442 418.19325362 42.06850024 420.51115799 39.55998993 C423.3135921 36.49814993 425.9668908 33.47765836 428.32365799 30.05998993 C430.38615799 27.12248993 430.38615799 27.12248993 433.38615799 25.12248993 C433.38615799 24.46248993 433.38615799 23.80248993 433.38615799 23.12248993 C434.04615799 23.12248993 434.70615799 23.12248993 435.38615799 23.12248993 C436.75882619 21.1492794 438.09043416 19.14705841 439.38615799 17.12248993 C440.04615799 16.46248993 440.70615799 15.80248993 441.38615799 15.12248993 C441.38615799 14.13248993 441.38615799 13.14248993 441.38615799 12.12248993 C429.78638483 12.00700546 418.2471754 12.13236905 406.66545486 12.85466766 C400.49150586 13.18061139 394.44006232 12.99895114 388.27748489 12.6361618 C377.72019583 12.06615738 367.19499439 11.99422939 356.62492752 12.02483368 C354.63439853 12.02675961 352.64386904 12.0282202 350.65333939 12.02925873 C346.40631175 12.03238987 342.15930466 12.03861328 337.91228485 12.04732513 C331.15405568 12.06103532 324.39583293 12.06678195 317.63759232 12.07146454 C302.05061257 12.08343401 286.46365008 12.10537831 270.87668228 12.12769318 C256.62011286 12.14803031 242.3635498 12.16607894 228.10696876 12.17590809 C222.5090848 12.18000931 216.91122093 12.18617531 211.31334686 12.19765472 C184.65132471 12.25178417 158.03456049 11.98818558 131.38615799 11.12248993 C129.17958725 11.05527033 126.97299554 10.98873323 124.7663765 10.92311859 C123.4398887 10.88363381 123.4398887 10.88363381 122.08660316 10.84335136 C121.28311251 10.81945147 120.47962185 10.79555157 119.65178299 10.77092743 C118.09839515 10.72413277 116.54500931 10.67727154 114.99162674 10.63030243 C114.27539139 10.60871063 113.55915604 10.58711884 112.82121658 10.56487274 C111.30000781 10.51796172 109.77885155 10.46932959 108.25774002 10.41936493 C105.95170526 10.34426508 103.6455579 10.27568501 101.33928299 10.20842743 C100.04151932 10.16766083 98.74375565 10.12689423 97.4066658 10.08489227 C94.46381446 9.90197566 94.46381446 9.90197566 92.38615799 11.12248993 C92.38615799 10.46248993 92.38615799 9.80248993 92.38615799 9.12248993 C91.72740677 9.11218246 91.06865555 9.101875 90.38994217 9.09125519 C83.51130967 8.98277191 76.63279715 8.86821004 69.75432205 8.75017548 C67.18989456 8.70696024 64.62544077 8.66527614 62.06096268 8.62517548 C58.36719732 8.56714697 54.67356266 8.50354735 50.97990799 8.43889618 C49.84001419 8.42218369 48.70012039 8.40547119 47.52568436 8.38825226 C38.60486023 8.22358302 38.60486023 8.22358302 34.24431229 7.59514618 C29.47252628 7.01056238 24.85921139 7.10274898 20.06193924 7.24358368 Z " fill="#000000" transform="translate(458.61384201049805,9.877510070800781)"/>
</svg>
